# xmcd
#
# Track frame offsets: 
#        187
#        13565
#        27857
#        41135
#        56237
#        71257
#        86625
#        102750
#        114890
#        127652
#        142262
#        154247
#        168490
#        182300
#        196675
#        210052
#        225030
#        240130
#        254575
#        268685
#
# Disc length: 3775 seconds
#
# Revision: 3
# Processed by: cddbd v1.5.2PL0 Copyright (c) Steve Scherf et al.
# Submitted via: ExactAudioCopy v0.99pb4
#
DISCID=f40ebd14
DTITLE=Various Artist - Better Boot That Thing (Great Women Blues Sin
DTITLE=gers of the 1920's)
DYEAR=1992
DGENRE=
TTITLE0=Alberta Hunter - I 'll Forgive You 'Cause I Love You
TTITLE1=Alberta Hunter - I'm Gonna Lose Myself Way Down in Louisville
TTITLE2=Alberta Hunter - My Daddy's Got A Brand New Way To Love
TTITLE3=Alberta Hunter - Sugar
TTITLE4=Albert Hunter - Beale Street Blues
TTITLE5=Bessie Tucker - Fort Worth and Denver Blues
TTITLE6=Bessie Tucker - Penitentiary
TTITLE7=Bessie Tucker - Better Boot That Thing
TTITLE8=Bessie Tucker - Bogey Man Blues
TTITLE9=Bessie Tucker - Whistlling Woman Blues
TTITLE10=Victoria Spivey - Blood Hound Blues
TTITLE11=Victoria Spivey - Dirty Tee Bee Blues
TTITLE12=Victoria Spivey - Moaning the Blues
TTITLE13=Victoria Spivey - Telephoning the Blues
TTITLE14=Victoria Spivey - Showered with Blues
TTITLE15=Ida May Mack - Wrong Doin' Daddy
TTITLE16=Ida May Mack - Elm Street Blues
TTITLE17=Ida May Mack - When You Lose Your Daddy
TTITLE18=Ida May Mack - Mr. Forty Nine Blues
TTITLE19=Ida May Mack - Good-Bye Rider
EXTD=
EXTT0=
EXTT1=
EXTT2=
EXTT3=
EXTT4=
EXTT5=
EXTT6=
EXTT7=
EXTT8=
EXTT9=
EXTT10=
EXTT11=
EXTT12=
EXTT13=
EXTT14=
EXTT15=
EXTT16=
EXTT17=
EXTT18=
EXTT19=
PLAYORDER=
